<svg xmlns="http://www.w3.org/2000/svg" xmlns:xlink="http://www.w3.org/1999/xlink" width="0" height="0" style="position:absolute">

		<symbol id="star" viewBox="0 0 46 43">
			<title>const-star - icomoon</title><path d="M21.22.731h3.56l5.878 12.248 13.518 1.812 1.128 3.381-9.898 9.36 2.449 13.42-2.852 2.08L23 36.565l-12.003 6.467-2.852-2.08 2.45-13.42-9.899-9.36 1.128-3.381 13.518-1.812L21.22.73zM14.403 25.37l.568 1.704-1.836 9.99 8.958-4.839h1.816l8.958 4.838-1.836-9.989.568-1.704 7.346-7.033-10.075-1.343-1.478-1.023-4.393-9.19-4.437 9.186-1.425 1.027-10.08 1.343 7.346 7.033z" fill-rule="nonzero" fill="#FFCB3A"></path>
		</symbol>

		<symbol id="tv_hd" viewBox="0 0 46 40">
			<title>tv_service-hd - icomoon</title><path d="M45.705 30.506h-19.97v5.273h6.738v3.907H13.918v-3.907h6.543v-5.273H.637V.135h45.068v30.37zM4.543 3.992V26.6h37.11V3.992H4.542zm14.111 9.18l1.075-5.274h3.71l-2.978 14.649H16.75l1.22-5.274h-4.59l-1.073 5.274H8.79l2.832-14.649h3.711l-1.074 5.274h4.394zm18.018-2.979c.195.26.342.53.44.806.097.277.195.594.292.952.098.358.155.716.171 1.074.016.358.025.7.025 1.026 0 .814-.082 1.57-.245 2.27-.162.7-.39 1.36-.683 1.978-.26.618-.562 1.188-.903 1.709-.342.52-.741.96-1.197 1.318-.358.26-.757.505-1.196.733-.44.227-.92.39-1.44.488a5.383 5.383 0 0 1-1.221.17 45.93 45.93 0 0 1-1.611.025h-5.47l2.98-15.039h6.005c.26 0 .53.04.806.122.276.082.545.155.805.22.26.098.497.228.708.39.212.163.448.326.708.489.163.195.334.39.513.586.18.195.35.423.513.683zm-3.516 6.69c.163-.423.293-.871.39-1.343a8.137 8.137 0 0 0 .147-1.636c0-.455-.04-.854-.122-1.196-.081-.342-.154-.66-.22-.952a2.564 2.564 0 0 1-.463-.488 1.354 1.354 0 0 0-.415-.391c-.098-.065-.277-.106-.537-.122s-.619-.025-1.075-.025h-1.22l-1.758 8.838h.879c.52.065.96.098 1.318.098.358 0 .619-.033.781-.098.163-.097.334-.195.513-.293.18-.097.366-.244.562-.44.26-.26.488-.536.683-.83.195-.292.374-.666.537-1.122z" fill="#FFCB3A" fill-rule="evenodd"></path>
		</symbol>

		<symbol id="tv_portal" viewBox="0 0 46 36">
			<title>package_service-tv_portal - icomoon</title><path d="M45.705.309v35.203H.637V.309h45.068zM9.816 31.459V19.863H4.543V31.46h5.273zm0-15.502V4.361H4.543v11.596h5.273zm22.461 15.502V4.361H13.723V31.46h18.554zm9.375 0V19.863H36.33V31.46h5.322zm0-15.502V4.361H36.33v11.596h5.322zm-22.607-4.248l9.863 6.201-9.863 6.152V11.71z" fill="#FFCB3A" fill-rule="evenodd"></path>
		</symbol>

</svg>
